Motion_mu01
version=1
nRows=5
nColumns=43
inDegrees=yes
endheader
time	pelvis_tilt	pelvis_list	pelvis_rotation	pelvis_tx	pelvis_ty	pelvis_tz	hip_flexion_r	hip_adduction_r	hip_rotation_r	knee_angle_r	ankle_angle_r	subtalar_angle_r	mtp_angle_r	hip_flexion_l	hip_adduction_l	hip_rotation_l	knee_angle_l	ankle_angle_l	subtalar_angle_l	mtp_angle_l	lumbar_extension	lumbar_bending	lumbar_rotation	neck_flexion	neck_lateral_bending	neck_rotation	arm_flex_r	arm_add_r	arm_rot_r	elbow_flex_r	pro_sup_r	wrist_flex_r	wrist_dev_r	hand_finger_flex_r	arm_flex_l	arm_add_l	arm_rot_l	elbow_flex_l	pro_sup_l	wrist_flex_l	wrist_dev_l	hand_finger_flex_l
      2.10250000	     -6.38442309	     22.40577936	    -84.66672760	      0.00124660	      1.82761336	      1.07506457	     26.06825454	    -11.60664664	    -19.33401558	    -53.16497205	    -10.09342268	     -6.54005832	    -11.14188541	     44.23182185	     -0.56852047	     -0.49148171	    -85.07008198	     14.71038677	     14.59248593	    -30.59635231	    -24.85892254	      5.07124377	      0.78316299	      3.53725076	      1.07914706	      6.00026339	   -232.05456536	   -152.22696283	   -195.00742191	    114.95480891	    163.52969304	    -19.17923445	    -18.07975630	     87.27549088	   -230.01038458	    208.08636613	   -189.03489777	    117.38526016	    165.53033120	    -42.71762335	     -1.57722599	     90.00021046
      2.10500000	     -6.39247336	     22.53639144	    -84.65696539	      0.00113947	      1.82793588	      1.07502480	     25.92579398	    -11.64068960	    -19.26415764	    -53.31222708	    -10.07795487	     -6.52124878	    -11.13253681	     44.18592334	     -0.59375360	     -0.51292412	    -85.31078841	     14.73694902	     14.58844727	    -30.59457466	    -24.75857065	      5.04462188	      0.78611958	      3.52462884	      1.06556657	      6.01469499	   -231.96465258	   -152.29503837	   -195.00740936	    114.78061831	    163.55039612	    -19.19785530	    -18.07961607	     87.26644329	   -229.92028382	    208.07753920	   -189.04342452	    117.31246513	    165.53295185	    -42.74165267	     -1.57443005	     90.00021046
      2.10750000	     -6.41373609	     22.67869958	    -84.68623922	      0.00112370	      1.82829365	      1.07485938	     25.77312417	    -11.66799155	    -19.22621822	    -53.41862382	    -10.07808591	     -6.51962573	    -11.13069651	     44.13562932	     -0.61447252	     -0.51498500	    -85.39369786	     14.74258184	     14.58615412	    -30.59422782	    -24.65756902	      5.04600719	      0.79494817	      3.52549284	      1.06342150	      6.01904149	   -231.88808987	   -152.31872316	   -195.00581956	    114.77069693	    163.55342774	    -19.20635107	    -18.08121835	     87.26351927	   -229.87634567	    208.08940325	   -189.04646475	    117.30113559	    165.53356605	    -42.74802655	     -1.57428334	     90.00021046
      2.11000000	     -6.28182055	     23.14029425	    -84.89334516	      0.00061217	      1.82830362	      1.07454309	     26.28335300	    -11.80739149	    -18.71778451	    -54.06752246	     -9.54794122	     -6.13503989	    -10.97438137	     44.42991734	     -0.73094554	     -0.92798215	    -85.70741609	     15.20597426	     14.53917268	    -30.55945541	    -24.16414425	      4.79433841	      0.89914521	      2.92981152	      1.08426483	      6.23204062	   -231.73568795	   -152.46267005	   -194.89934963	    114.35844945	    163.73722534	    -19.74941547	    -18.25171281	     87.15649029	   -229.69410297	    208.19053445	   -188.81377670	    116.94929671	    165.54994470	    -43.16177723	     -1.60020197	     90.00021046
      2.11250000	     -6.29816282	     23.25909147	    -84.87465145	      0.00031656	      1.82865859	      1.07447707	     26.13902160	    -11.82788504	    -18.66811361	    -54.25587492	     -9.53918957	     -6.09305959	    -10.96291437	     44.39415277	     -0.77461814	     -0.94491495	    -85.94056293	     15.21409070	     14.53316633	    -30.56053982	    -24.08093642	      4.77413257	      0.89709183	      2.93534455	      1.06446952	      6.24570179	   -231.62481983	   -152.58196118	   -194.82636286	    114.19215013	    163.75713256	    -19.79624283	    -18.27047647	     87.14612781	   -229.62598996	    208.24104639	   -188.81876273	    116.84890715	    165.55332605	    -43.20118931	     -1.59715586	     90.00021046
